<svg xmlns="http://www.w3.org/2000/svg" xmlns:xlink="http://www.w3.org/1999/xlink" viewBox="0 0 64 64"><defs><style>.cls-1{fill:url(#linear-gradient);}.cls-2{fill:url(#linear-gradient-2);}.cls-3{fill:url(#linear-gradient-3);}.cls-4{fill:url(#linear-gradient-4);}.cls-5{fill:url(#linear-gradient-5);}.cls-6{fill:url(#linear-gradient-6);}.cls-7{fill:url(#linear-gradient-7);}</style><linearGradient id="linear-gradient" x1="3" y1="10.36" x2="15.14" y2="10.36" gradientUnits="userSpaceOnUse"><stop offset="0" stop-color="#ffae46" id="id_174"></stop><stop offset="0.19" stop-color="#ff9755" id="id_175"></stop><stop offset="0.74" stop-color="#ff5a7d" id="id_176"></stop><stop offset="1" stop-color="#ff428d" id="id_177"></stop></linearGradient><linearGradient id="linear-gradient-2" x1="22.28" y1="14.6" x2="34.42" y2="14.6" xlink:href="#linear-gradient"></linearGradient><linearGradient id="linear-gradient-3" x1="4.89" y1="27.31" x2="11.13" y2="27.31" xlink:href="#linear-gradient"></linearGradient><linearGradient id="linear-gradient-4" x1="40.33" y1="18.64" x2="46.57" y2="18.64" xlink:href="#linear-gradient"></linearGradient><linearGradient id="linear-gradient-5" x1="48.86" y1="24.35" x2="61" y2="24.35" xlink:href="#linear-gradient"></linearGradient><linearGradient id="linear-gradient-6" x1="52.87" y1="7.41" x2="59.11" y2="7.41" xlink:href="#linear-gradient"></linearGradient><linearGradient id="linear-gradient-7" x1="3" y1="41.14" x2="61" y2="41.14" xlink:href="#linear-gradient"></linearGradient></defs><g id="Layer_29" data-name="Layer 29"><path class="cls-1" d="M4,11.11a4.09,4.09,0,0,1,3.88,4.27,1,1,0,0,0,.95,1h.05a1,1,0,0,0,1-.95A4.08,4.08,0,0,1,14.1,11.6h.05a.87.87,0,0,0,.28,0h.06a1.05,1.05,0,0,0,.54-.48l0,0a.92.92,0,0,0,.09-.38,1,1,0,0,0-1-1,4.08,4.08,0,0,1-3.87-4.27,1,1,0,0,0-1-1,1,1,0,0,0-1,1A4.09,4.09,0,0,1,4.05,9.12a1,1,0,0,0-1,1A1,1,0,0,0,4,11.11ZM9.16,8.62a6.17,6.17,0,0,0,1.66,1.83A6.17,6.17,0,0,0,9,12.11a6,6,0,0,0-1.67-1.84A6.06,6.06,0,0,0,9.16,8.62Z" id="id_167"></path><path class="cls-2" d="M23.23,15.35a4.06,4.06,0,0,1,2.82,1.34,4,4,0,0,1,1.06,2.93,1,1,0,0,0,.95,1.05h.05a1,1,0,0,0,1-1,4.09,4.09,0,0,1,4.27-3.88h0a1,1,0,0,0,0-2A4.08,4.08,0,0,1,29.6,9.58a1,1,0,0,0-2-.1,4.08,4.08,0,0,1-4.27,3.88,1,1,0,0,0-1,1A1,1,0,0,0,23.23,15.35Zm5.21-2.49a6.14,6.14,0,0,0,1.66,1.82,6.05,6.05,0,0,0-1.83,1.66,6.39,6.39,0,0,0-.73-1,6.58,6.58,0,0,0-.93-.83A6.14,6.14,0,0,0,28.44,12.86Z" id="id_168"></path><path class="cls-3" d="M9,25.19a1,1,0,0,0-2,0,1.12,1.12,0,0,1-1.12,1.12,1,1,0,1,0,0,2A1.12,1.12,0,0,1,7,29.43a1,1,0,0,0,2,0,1.12,1.12,0,0,1,1.12-1.12,1,1,0,0,0,0-2A1.12,1.12,0,0,1,9,25.19Z" id="id_169"></path><path class="cls-4" d="M41.33,19.64a1.12,1.12,0,0,1,1.12,1.12,1,1,0,1,0,2,0,1.13,1.13,0,0,1,1.12-1.12,1,1,0,1,0,0-2,1.12,1.12,0,0,1-1.12-1.12,1,1,0,1,0-2,0,1.12,1.12,0,0,1-1.12,1.12,1,1,0,0,0,0,2Z" id="id_170"></path><path class="cls-5" d="M49.81,25.11a4.08,4.08,0,0,1,3.87,4.27,1,1,0,0,0,1,1.05h0a1,1,0,0,0,1-.95A4.09,4.09,0,0,1,60,25.6h0a1,1,0,0,0,0-2,4.08,4.08,0,0,1-3.88-4.27,1,1,0,1,0-2-.1,4.07,4.07,0,0,1-4.27,3.88,1,1,0,0,0-.09,2Zm5.2-2.5a6.26,6.26,0,0,0,1.67,1.84,6,6,0,0,0-1.83,1.66,6.26,6.26,0,0,0-1.67-1.84A6.19,6.19,0,0,0,55,22.61Z" id="id_171"></path><path class="cls-6" d="M53.87,8.41A1.12,1.12,0,0,1,55,9.53a1,1,0,0,0,2,0,1.12,1.12,0,0,1,1.12-1.12,1,1,0,0,0,0-2A1.12,1.12,0,0,1,57,5.29a1,1,0,1,0-2,0,1.12,1.12,0,0,1-1.12,1.12,1,1,0,0,0,0,2Z" id="id_172"></path><path class="cls-7" d="M57.25,46.7a1,1,0,0,0-1-.7H51.4L47.92,35a1,1,0,0,0-1-.7H42.07l-3.49-11a1,1,0,0,0-.95-.7H26.37a1,1,0,0,0-.95.7l-3.49,11H17a1,1,0,0,0-1,.7L12.6,46H7.7a1,1,0,0,0-1,.7L3.05,58.41a1,1,0,0,0,.14.89,1,1,0,0,0,.81.41H60a1,1,0,0,0,.81-.41,1,1,0,0,0,.14-.89Zm-8-.7H33.36l3.08-9.72h9.79Zm-8,9.39L39,48h4.67ZM32,43.68l-2.34-7.4h4.68ZM27.1,24.57h9.8L40,34.28H24ZM17.77,36.28h9.79L30.64,46H14.7Zm4.9,19.11L20.33,48H25ZM5.36,57.71,8.44,48h9.79l3.07,9.71Zm18.67,0L27.1,48h9.8L40,57.71Zm18.67,0L45.77,48h9.79l3.08,9.71Z" id="id_173"></path></g></svg>