<svg xmlns="http://www.w3.org/2000/svg" width="512" height="512" viewBox="0 0 512 512"> <g> <g> <polygon points="256 376 16 376 48 288 223 288 256 376" fill="#ffc800" id="id_101"></polygon> <polygon points="496 376 256 376 288 288 463 288 496 376" fill="#ffca0a" id="id_102"></polygon> <polygon points="376 288 136 288 168 200 343 200 376 288" fill="#ffc800" id="id_103"></polygon> </g> <g> <path d="M503.49,373.19l-33-88A8.005,8.005,0,0,0,463,280H381.54l-31.05-82.81A8.005,8.005,0,0,0,343,192H168a8,8,0,0,0-7.52,5.27L130.4,280H48a8,8,0,0,0-7.52,5.27l-32,88A8,8,0,0,0,16,384H496a7.992,7.992,0,0,0,7.49-10.81ZM173.6,208H337.46l27,72H147.42ZM27.42,368,53.6,296H217.46l27,72Zm228.46-15.09L234.54,296h42.04ZM267.42,368l26.18-72H457.46l27,72Z" id="id_104" style="fill: rgb(255, 200, 0);"></path> <path d="M104,160h8v8a8,8,0,0,0,16,0v-8h8a8,8,0,0,0,0-16h-8v-8a8,8,0,0,0-16,0v8h-8a8,8,0,0,0,0,16Z" id="id_105" style="fill: rgb(255, 170, 0);"></path> <path d="M384,240h16v16a8,8,0,0,0,16,0V240h16a8,8,0,0,0,0-16H416V208a8,8,0,0,0-16,0v16H384a8,8,0,0,0,0,16Z" id="id_106" style="fill: rgb(255, 170, 0);"></path> </g> </g> </svg>