<svg width="64" height="64" viewBox="0 0 64 64" fill="none" xmlns="http://www.w3.org/2000/svg">
<path d="M53.4299 24.4698C53.502 24.2337 53.515 23.9835 53.4679 23.7412C53.4209 23.4988 53.3151 23.2718 53.1599 23.0798L43.2699 11.0798C43.1293 10.908 42.9523 10.7695 42.7517 10.6744C42.5511 10.5793 42.3319 10.5299 42.1099 10.5298C39.6299 10.5298 34.4399 10.5298 31.9999 10.5298C29.5599 10.5298 24.3499 10.5298 21.8899 10.5298C21.6679 10.5299 21.4487 10.5793 21.2481 10.6744C21.0475 10.7695 20.8705 10.908 20.7299 11.0798L10.8399 23.0798C10.6282 23.3493 10.5132 23.6821 10.5132 24.0248C10.5132 24.3675 10.6282 24.7003 10.8399 24.9698L30.8399 49.9698C31.023 50.1884 31.2612 50.3541 31.5299 50.4498V50.4498C31.8543 50.5588 32.2055 50.5588 32.5299 50.4498V50.4498C32.6914 50.3825 32.8456 50.2987 32.9899 50.1998C33.3999 49.8598 52.8799 25.3598 53.2199 24.9998C53.3172 24.8352 53.388 24.6563 53.4299 24.4698V24.4698ZM22.4999 25.5298L27.8699 41.4398L15.1199 25.5298H22.4999ZM25.6699 25.5298H38.3299L31.9999 44.3098L25.6699 25.5298ZM41.4999 25.5298H48.8799L36.1299 41.4398L41.4999 25.5298ZM48.8299 22.5298H41.4899L38.3599 13.5298H41.3599L48.8299 22.5298ZM31.9999 13.4998H35.1899L38.3199 22.4998H25.6799L28.8099 13.4998H31.9999ZM22.5999 13.4998H25.5999L22.4699 22.4998H15.1699L22.5999 13.4998Z" fill="url(#paint0_linear_123:2586)" id="id_106"></path>
<defs>
<linearGradient id="paint0_linear_123:2586" x1="10.5099" y1="30.4898" x2="53.4999" y2="30.4898" gradientUnits="userSpaceOnUse">
<stop stop-color="#ffa200" id="id_107"></stop>
<stop offset="0.26" stop-color="#ffa305" id="id_108"></stop>
<stop offset="0.75" stop-color="#ffa303" id="id_109"></stop>
<stop offset="1" stop-color="#ffa200" id="id_110"></stop>
</linearGradient>
</defs>
</svg>